<svg width="40" height="40" viewBox="0 0 40 40" fill="none" xmlns="http://www.w3.org/2000/svg">
<mask id="mask0_464_229" style="mask-type:luminance" maskUnits="userSpaceOnUse" x="4" y="0" width="32" height="40">
<path d="M35.5514 0.785156H4.44873V39.2153H35.5514V0.785156Z" fill="white"/>
</mask>
<g mask="url(#mask0_464_229)">
<path d="M35.5515 39.2154L27.5801 17.5088C26.2052 18.8053 24.4879 19.678 22.6063 20.1447L26.5816 30.9763H21.8296L21.8535 36.0096H28.4286L29.6051 39.2154H35.5515Z" fill="#FB7454"/>
<path d="M20.0001 17.2514C24.547 17.2514 28.233 13.5654 28.233 9.01842C28.233 4.47147 24.547 0.785156 20.0001 0.785156C15.4531 0.785156 11.7671 4.47118 11.7671 9.01813C11.7671 10.9887 12.4602 12.7968 13.6147 14.2138L4.44873 39.2153H10.3948L11.5701 36.0095H18.1706L18.1467 30.9762H13.4154L18.4983 17.1118C18.9854 17.2018 19.487 17.2514 20.0001 17.2514ZM20.0001 5.81666C21.7684 5.81666 23.2018 7.25011 23.2018 9.01842C23.2018 10.7868 21.7684 12.2202 20.0001 12.2202C18.2318 12.2202 16.7983 10.7868 16.7983 9.01842C16.7983 7.25011 18.2318 5.81666 20.0001 5.81666Z" fill="#FB7454"/>
</g>
</svg>
